<?xml version="1.0" encoding="UTF-8" standalone="no"?>
<!-- Created with Inkscape (http://www.inkscape.org/) -->
<svg
   xmlns:dc="http://purl.org/dc/elements/1.1/"
   xmlns:cc="http://web.resource.org/cc/"
   xmlns:rdf="http://www.w3.org/1999/02/22-rdf-syntax-ns#"
   xmlns:svg="http://www.w3.org/2000/svg"
   xmlns="http://www.w3.org/2000/svg"
   xmlns:sodipodi="http://inkscape.sourceforge.net/DTD/sodipodi-0.dtd"
   xmlns:inkscape="http://www.inkscape.org/namespaces/inkscape"
   width="100"
   height="100"
   id="svg1307"
   sodipodi:version="0.32"
   inkscape:version="0.43"
   version="1.0"
   sodipodi:docbase="C:\shi\swf\bb\bbow\art\brush"
   sodipodi:docname="rock1.svg"
   inkscape:export-filename="C:\shi\swf\bb\bbow\art\brush\tree4.png"
   inkscape:export-xdpi="90"
   inkscape:export-ydpi="90">
  <defs
     id="defs1309" />
  <sodipodi:namedview
     id="base"
     pagecolor="#ffffff"
     bordercolor="#666666"
     borderopacity="1.0"
     inkscape:pageopacity="0.0"
     inkscape:pageshadow="2"
     inkscape:zoom="2.6865406"
     inkscape:cx="43.12149"
     inkscape:cy="18.130359"
     inkscape:current-layer="layer1"
     showgrid="true"
     inkscape:document-units="px"
     inkscape:grid-bbox="true"
     showborder="true"
     inkscape:window-width="902"
     inkscape:window-height="691"
     inkscape:window-x="25"
     inkscape:window-y="3" />
  <metadata
     id="metadata1312">
    <rdf:RDF>
      <cc:Work
         rdf:about="">
        <dc:format>image/svg+xml</dc:format>
        <dc:type
           rdf:resource="http://purl.org/dc/dcmitype/StillImage" />
      </cc:Work>
    </rdf:RDF>
  </metadata>
  <g
     id="layer1"
     inkscape:label="Layer 1"
     inkscape:groupmode="layer">
    <rect
       style="fill:#5b2000;fill-opacity:1;stroke:#401000;stroke-width:2;stroke-linecap:round;stroke-linejoin:bevel;stroke-miterlimit:4;stroke-dasharray:none;stroke-opacity:1"
       id="rect2216"
       width="10"
       height="53.658562"
       x="-122.11906"
       y="29.697058" />
    <path
       sodipodi:type="arc"
       style="fill:#004a0e;fill-opacity:1;stroke:#002800;stroke-width:1.25438726;stroke-linecap:round;stroke-linejoin:bevel;stroke-miterlimit:4;stroke-dasharray:none;stroke-opacity:1"
       id="path2218"
       sodipodi:cx="41.454544"
       sodipodi:cy="35.81818"
       sodipodi:rx="14.545455"
       sodipodi:ry="16.181818"
       d="M 55.999999 35.81818 A 14.545455 16.181818 0 1 1  26.909089,35.81818 A 14.545455 16.181818 0 1 1  55.999999 35.81818 z"
       transform="matrix(1.668269,0,0,1.060806,-166.4576,8.458368)" />
    <path
       sodipodi:type="arc"
       style="fill:#004a0e;fill-opacity:1;stroke:#002800;stroke-width:1.25438726;stroke-linecap:round;stroke-linejoin:bevel;stroke-miterlimit:4;stroke-dasharray:none;stroke-opacity:1"
       id="path2226"
       sodipodi:cx="41.454544"
       sodipodi:cy="35.81818"
       sodipodi:rx="14.545455"
       sodipodi:ry="16.181818"
       d="M 55.999999 35.81818 A 14.545455 16.181818 0 1 1  26.909089,35.81818 A 14.545455 16.181818 0 1 1  55.999999 35.81818 z"
       transform="matrix(1.668269,0,0,1.060806,-205.4576,7.864748)" />
    <path
       sodipodi:type="arc"
       style="fill:#004a0e;fill-opacity:1;stroke:#002800;stroke-width:1.25438726;stroke-linecap:round;stroke-linejoin:bevel;stroke-miterlimit:4;stroke-dasharray:none;stroke-opacity:1"
       id="path2224"
       sodipodi:cx="41.454544"
       sodipodi:cy="35.81818"
       sodipodi:rx="14.545455"
       sodipodi:ry="16.181818"
       d="M 55.999999 35.81818 A 14.545455 16.181818 0 1 1  26.909089,35.81818 A 14.545455 16.181818 0 1 1  55.999999 35.81818 z"
       transform="matrix(1.668269,0,0,1.060806,-200.2575,-13.62976)" />
    <path
       sodipodi:type="arc"
       style="fill:#004a0e;fill-opacity:1;stroke:#002800;stroke-width:1.25438726;stroke-linecap:round;stroke-linejoin:bevel;stroke-miterlimit:4;stroke-dasharray:none;stroke-opacity:1"
       id="path2222"
       sodipodi:cx="41.454544"
       sodipodi:cy="35.81818"
       sodipodi:rx="14.545455"
       sodipodi:ry="16.181818"
       d="M 55.999999 35.81818 A 14.545455 16.181818 0 1 1  26.909089,35.81818 A 14.545455 16.181818 0 1 1  55.999999 35.81818 z"
       transform="matrix(1.668269,0,0,1.060806,-172.2574,-12.99627)" />
    <path
       transform="matrix(0.702263,0,0,0.479003,17.38797,73.50849)"
       d="M 55.999999 35.81818 A 14.545455 16.181818 0 1 1  26.909089,35.81818 A 14.545455 16.181818 0 1 1  55.999999 35.81818 z"
       sodipodi:ry="16.181818"
       sodipodi:rx="14.545455"
       sodipodi:cy="35.81818"
       sodipodi:cx="41.454544"
       id="path2777"
       style="fill:#373737;fill-opacity:1;stroke:#000000;stroke-width:1.93969529;stroke-linecap:round;stroke-linejoin:bevel;stroke-miterlimit:4;stroke-dasharray:none;stroke-opacity:1"
       sodipodi:type="arc" />
    <path
       sodipodi:type="arc"
       style="fill:#424242;fill-opacity:1;stroke:#000000;stroke-width:3.1530416;stroke-linecap:round;stroke-linejoin:bevel;stroke-miterlimit:4;stroke-dasharray:none;stroke-opacity:1"
       id="path2816"
       sodipodi:cx="41.454544"
       sodipodi:cy="35.81818"
       sodipodi:rx="14.545455"
       sodipodi:ry="16.181818"
       d="M 55.999999 35.81818 A 14.545455 16.181818 0 1 1  26.909089,35.81818 A 14.545455 16.181818 0 1 1  55.999999 35.81818 z"
       transform="matrix(0.43202,0,0,0.294674,17.24438,83.77617)" />
    <path
       transform="matrix(0.305816,0,0,0.208592,30.16895,88.75504)"
       d="M 55.999999 35.81818 A 14.545455 16.181818 0 1 1  26.909089,35.81818 A 14.545455 16.181818 0 1 1  55.999999 35.81818 z"
       sodipodi:ry="16.181818"
       sodipodi:rx="14.545455"
       sodipodi:cy="35.81818"
       sodipodi:cx="41.454544"
       id="path2818"
       style="fill:#424242;fill-opacity:1;stroke:#000000;stroke-width:4.14244304;stroke-linecap:round;stroke-linejoin:bevel;stroke-miterlimit:4;stroke-dasharray:none;stroke-opacity:1"
       sodipodi:type="arc" />
    <path
       style="fill:#424242;fill-opacity:1;fill-rule:evenodd;stroke:#000000;stroke-width:1px;stroke-linecap:butt;stroke-linejoin:miter;stroke-opacity:1"
       d="M -92.976975,83.05619 C -92.976975,82.722857 -92.976975,82.389523 -92.976975,82.05619 C -92.976975,79.30083 -80.909573,75.723705 -78.976975,74.544431 C -77.900505,73.887568 -76.658216,73.55227 -75.498837,73.05619 C -72.347585,71.707819 -72.314706,71.123571 -68.74362,71.033997 C -64.252838,70.921354 -66.327685,72.155717 -61.976975,75.05619 C -57.232521,78.219159 -63.118914,75.130383 -59.976975,78.638916 C -57.798824,81.071208 -53.073862,78.862415 -50.976975,83.05619 C -50.591868,83.826403 -54.926571,87.895526 -55.398638,88.05619 C -58.332661,89.054763 -63.447015,88.05619 -66.565415,88.05619 C -70.702602,88.05619 -74.839788,88.05619 -78.976975,88.05619 C -82.951762,88.05619 -84.423503,86.05619 -88.976975,86.05619 C -90.960597,86.05619 -100.62762,85.855741 -94.482358,83.477853 C -93.996365,83.2898 -93.478769,83.196744 -92.976975,83.05619 z "
       id="path2820"
       sodipodi:nodetypes="cssssssssssssc" />
    <path
       sodipodi:type="arc"
       style="fill:#585858;fill-opacity:1;stroke:#000000;stroke-width:4.14244318;stroke-linecap:round;stroke-linejoin:bevel;stroke-miterlimit:4;stroke-dasharray:none;stroke-opacity:1"
       id="path2822"
       sodipodi:cx="41.454544"
       sodipodi:cy="35.81818"
       sodipodi:rx="14.545455"
       sodipodi:ry="16.181818"
       d="M 55.999999 35.81818 A 14.545455 16.181818 0 1 1  26.909089,35.81818 A 14.545455 16.181818 0 1 1  55.999999 35.81818 z"
       transform="matrix(0.305816,0,0,0.208592,6.351179,88.75504)" />
  </g>
</svg>
