<?xml version="1.0" encoding="UTF-8" standalone="no"?>
<!-- Created with Inkscape (http://www.inkscape.org/) -->
<svg
   xmlns:dc="http://purl.org/dc/elements/1.1/"
   xmlns:cc="http://web.resource.org/cc/"
   xmlns:rdf="http://www.w3.org/1999/02/22-rdf-syntax-ns#"
   xmlns:svg="http://www.w3.org/2000/svg"
   xmlns="http://www.w3.org/2000/svg"
   xmlns:sodipodi="http://inkscape.sourceforge.net/DTD/sodipodi-0.dtd"
   xmlns:inkscape="http://www.inkscape.org/namespaces/inkscape"
   width="100"
   height="100"
   id="svg1307"
   sodipodi:version="0.32"
   inkscape:version="0.43"
   version="1.0"
   sodipodi:docbase="C:\shi\swf\bb\bbow\art\brush"
   sodipodi:docname="totem2.svg"
   inkscape:export-filename="C:\shi\swf\bb\bbow\art\brush\totem1.png"
   inkscape:export-xdpi="90"
   inkscape:export-ydpi="90">
  <defs
     id="defs1309" />
  <sodipodi:namedview
     id="base"
     pagecolor="#ffffff"
     bordercolor="#666666"
     borderopacity="1.0"
     inkscape:pageopacity="0.0"
     inkscape:pageshadow="2"
     inkscape:zoom="3.7993422"
     inkscape:cx="-1.2582816"
     inkscape:cy="32.466529"
     inkscape:current-layer="layer1"
     showgrid="true"
     inkscape:document-units="px"
     inkscape:grid-bbox="true"
     showborder="true"
     inkscape:window-width="902"
     inkscape:window-height="691"
     inkscape:window-x="109"
     inkscape:window-y="-9" />
  <metadata
     id="metadata1312">
    <rdf:RDF>
      <cc:Work
         rdf:about="">
        <dc:format>image/svg+xml</dc:format>
        <dc:type
           rdf:resource="http://purl.org/dc/dcmitype/StillImage" />
      </cc:Work>
    </rdf:RDF>
  </metadata>
  <g
     id="layer1"
     inkscape:label="Layer 1"
     inkscape:groupmode="layer">
    <rect
       style="fill:#8c0906;fill-opacity:1;fill-rule:nonzero;stroke:#401000;stroke-width:1.5;stroke-miterlimit:4;stroke-dasharray:none;stroke-opacity:1"
       id="rect2347"
       width="84.097458"
       height="18.256031"
       x="7.8786311"
       y="9.3301497"
       rx="8.4487534"
       ry="6.5120406" />
    <path
       style="fill:#ad1627;fill-opacity:1;stroke:#86161d;stroke-width:1.47907937;stroke-linejoin:bevel;stroke-miterlimit:4;stroke-dasharray:none;stroke-opacity:1"
       d="M 38.475263,0.98953986 L 35.314115,0.98953986 C 33.547099,0.98953986 32.124925,2.647163 32.124925,4.7024736 L 32.124925,19.816074 C 32.124925,19.302249 32.21647,18.81059 32.377443,18.366441 C 32.538416,17.922292 32.771913,17.523307 33.060176,17.188028 C 33.348429,16.852738 33.68839,16.580305 34.070249,16.393068 C 34.261169,16.29945 34.460795,16.22722 34.668803,16.177955 C 34.876801,16.128701 35.093249,16.10314 35.314115,16.10314 L 61.585217,16.10314 C 61.806093,16.10314 62.022541,16.128701 62.230539,16.177955 C 62.438547,16.22722 62.638173,16.29945 62.829103,16.393068 C 63.210952,16.580305 63.560261,16.852738 63.848524,17.188028 C 64.136776,17.523307 64.370274,17.922292 64.531247,18.366441 C 64.69223,18.81059 64.774417,19.302249 64.774417,19.816074 L 64.774417,4.7024736 C 64.774417,2.647163 63.352243,0.98953986 61.585217,0.98953986 L 58.124802,0.98953986 L 58.124802,2.4204736 C 58.124802,2.9342986 58.024629,3.4259573 57.844231,3.8701061 C 57.663832,4.3142548 57.400379,4.7132297 57.077328,5.0485191 C 56.754277,5.383798 56.373622,5.6562426 55.945675,5.8434786 C 55.731711,5.9370967 55.505412,6.009327 55.272299,6.0585812 C 55.039186,6.1078353 54.799694,6.1333967 54.552165,6.1333967 L 42.04791,6.1333967 C 41.800371,6.1333967 41.560869,6.1078353 41.327766,6.0585812 C 41.094643,6.009327 40.868354,5.9370967 40.654381,5.8434786 C 40.226453,5.6562321 39.845778,5.383798 39.522727,5.0485191 C 39.199677,4.7132297 38.936223,4.3142548 38.755834,3.8701061 C 38.575426,3.425947 38.475263,2.9342986 38.475263,2.4204736 L 38.475263,0.98953986 z "
       id="path2318" />
    <path
       style="fill:#ad1627;fill-opacity:1;stroke:#ad1627;stroke-width:1.47907937;stroke-miterlimit:4;stroke-dasharray:none;stroke-opacity:1"
       d="M 64.774417,76.198547 C 64.424556,76.153591 64.079605,76.095668 63.717586,76.095668 C 63.14394,76.095668 62.584532,76.153207 62.043485,76.264008 C 61.502447,76.37482 60.978903,76.5399 60.481636,76.75034 C 59.98437,76.960782 59.511715,77.218338 59.069411,77.517237 C 58.627088,77.816146 58.22043,78.160468 57.844231,78.536664 C 57.468042,78.91286 57.123712,79.319518 56.82482,79.76184 C 56.525908,80.20415 56.268351,80.676799 56.057907,81.174064 C 55.847464,81.671319 55.682389,82.194883 55.571576,82.73592 C 55.460773,83.276967 55.403237,83.836371 55.403237,84.41002 C 55.403237,84.983658 55.460773,85.543062 55.571576,86.084109 C 55.682389,86.625146 55.847464,87.148711 56.057907,87.645975 C 56.268351,88.143241 56.525908,88.615879 56.82482,89.0582 C 57.123712,89.500511 57.468042,89.916524 57.844231,90.29272 C 58.22043,90.668916 58.627088,91.003883 59.069411,91.302793 C 59.511715,91.601691 59.98437,91.859248 60.481636,92.069689 C 60.978903,92.280129 61.502447,92.44521 62.043485,92.556021 C 62.584532,92.666832 63.14394,92.724362 63.717586,92.724362 C 64.079605,92.724362 64.424556,92.666438 64.774417,92.621493 L 64.774417,76.198547 z "
       id="path2295" />
    <path
       style="fill:#ad1627;fill-opacity:1;stroke:#ad1627;stroke-width:1.47907937;stroke-miterlimit:4;stroke-dasharray:none;stroke-opacity:1"
       d="M 32.124925,92.275447 C 32.422348,92.372896 32.711646,92.492304 33.022765,92.556021 C 33.563803,92.666832 34.12321,92.724362 34.696856,92.724362 C 35.270502,92.724362 35.82991,92.666822 36.370957,92.556021 C 36.911994,92.44522 37.435549,92.280129 37.932816,92.069689 C 38.430072,91.859248 38.902727,91.601691 39.345031,91.302793 C 39.787354,91.003883 40.194012,90.668916 40.570211,90.29272 C 40.94641,89.916524 41.29073,89.500511 41.589622,89.0582 C 41.888534,88.615879 42.146091,88.143241 42.356535,87.645975 C 42.566978,87.148711 42.732053,86.625146 42.842866,86.084109 C 42.953669,85.543062 43.011205,84.983658 43.011205,84.41002 C 43.011205,83.836371 42.953669,83.276967 42.842866,82.73592 C 42.732053,82.194883 42.566978,81.671319 42.356535,81.174064 C 42.146091,80.676799 41.888534,80.20415 41.589622,79.76184 C 41.29073,79.319518 40.94641,78.91286 40.570211,78.536664 C 40.194012,78.160468 39.787354,77.816146 39.345031,77.517237 C 38.902727,77.218338 38.430072,76.960782 37.932816,76.75034 C 37.435549,76.5399 36.911994,76.37482 36.370957,76.264008 C 35.82991,76.153197 35.270502,76.095668 34.696856,76.095668 C 34.12321,76.095668 33.563803,76.153207 33.022765,76.264008 C 32.711646,76.327725 32.422348,76.447133 32.124925,76.544582 L 32.124925,92.275447 z "
       id="path2298" />
    <path
       style="fill:#355373;fill-opacity:1;stroke:#355699;stroke-width:1.47907937;stroke-miterlimit:4;stroke-dasharray:none;stroke-opacity:1"
       d="M 35.314115,66.425208 C 33.547099,66.425208 32.124925,68.082831 32.124925,70.138142 L 32.124925,76.544582 C 32.422348,76.447133 32.711646,76.327725 33.022765,76.264008 C 33.563803,76.153207 34.12321,76.095668 34.696856,76.095668 C 35.270502,76.095668 35.82991,76.153197 36.370957,76.264008 C 36.911994,76.37482 37.435549,76.5399 37.932816,76.75034 C 38.430072,76.960782 38.902727,77.218338 39.345031,77.517237 C 39.787354,77.816146 40.194012,78.160468 40.570211,78.536664 C 40.94641,78.91286 41.29073,79.319518 41.589622,79.76184 C 41.888534,80.20415 42.146091,80.676799 42.356535,81.174064 C 42.566978,81.671319 42.732053,82.194883 42.842866,82.73592 C 42.953669,83.276967 43.011205,83.836371 43.011205,84.41002 C 43.011205,84.983658 42.953669,85.543062 42.842866,86.084109 C 42.732053,86.625146 42.566978,87.148711 42.356535,87.645975 C 42.146091,88.143241 41.888534,88.615879 41.589622,89.0582 C 41.29073,89.500511 40.94641,89.916524 40.570211,90.29272 C 40.194012,90.668916 39.787354,91.003883 39.345031,91.302793 C 38.902727,91.601691 38.430072,91.859248 37.932816,92.069689 C 37.435549,92.280129 36.911994,92.44522 36.370957,92.556021 C 35.82991,92.666822 35.270502,92.724362 34.696856,92.724362 C 34.12321,92.724362 33.563803,92.666832 33.022765,92.556021 C 32.711646,92.492304 32.422348,92.372896 32.124925,92.275447 L 32.124925,95.361761 C 32.124925,97.417072 33.547099,99.074695 35.314115,99.074695 L 61.585217,99.074695 C 63.352243,99.074695 64.774427,97.417072 64.774417,95.361761 L 64.774417,92.621493 C 64.424556,92.666438 64.079605,92.724362 63.717586,92.724362 C 63.14394,92.724362 62.584532,92.666832 62.043485,92.556021 C 61.502447,92.44521 60.978903,92.280129 60.481636,92.069689 C 59.98437,91.859248 59.511715,91.601691 59.069411,91.302793 C 58.627088,91.003883 58.22043,90.668916 57.844231,90.29272 C 57.468042,89.916524 57.123712,89.500511 56.82482,89.0582 C 56.525908,88.615879 56.268351,88.143241 56.057907,87.645975 C 55.847464,87.148711 55.682389,86.625146 55.571576,86.084109 C 55.460773,85.543062 55.403237,84.983658 55.403237,84.41002 C 55.403237,83.836371 55.460773,83.276967 55.571576,82.73592 C 55.682389,82.194883 55.847464,81.671319 56.057907,81.174064 C 56.268351,80.676799 56.525908,80.20415 56.82482,79.76184 C 57.123712,79.319518 57.468042,78.91286 57.844231,78.536664 C 58.22043,78.160468 58.627088,77.816146 59.069411,77.517237 C 59.511715,77.218338 59.98437,76.960782 60.481636,76.75034 C 60.978903,76.5399 61.502447,76.37482 62.043485,76.264008 C 62.584532,76.153207 63.14394,76.095668 63.717586,76.095668 C 64.079605,76.095668 64.424556,76.153591 64.774417,76.198547 L 64.774417,70.138142 C 64.774417,68.082831 63.352243,66.425208 61.585217,66.425208 L 58.124802,66.425208 L 58.124802,67.856132 C 58.124802,68.369957 58.024629,68.861616 57.844231,69.305764 C 57.663832,69.749923 57.400379,70.148898 57.077328,70.484177 C 56.754277,70.819466 56.373622,71.082557 55.945675,71.269792 C 55.731711,71.36341 55.505412,71.435641 55.272299,71.484895 C 55.039186,71.534149 54.799694,71.569065 54.552165,71.569065 L 42.04791,71.569065 C 41.800371,71.569065 41.560869,71.534149 41.327766,71.484895 C 41.094643,71.435641 40.868354,71.36341 40.654381,71.269792 C 40.226453,71.082557 39.845778,70.819466 39.522727,70.484177 C 39.199677,70.148898 38.936223,69.749923 38.755834,69.305764 C 38.575426,68.861616 38.475263,68.369957 38.475263,67.856132 L 38.475263,66.425208 L 35.314115,66.425208 z "
       id="path2281" />
    <path
       sodipodi:type="arc"
       style="fill:#270000;fill-opacity:1;stroke:none;stroke-width:5;stroke-miterlimit:4;stroke-dasharray:none;stroke-opacity:1"
       id="path2300"
       sodipodi:cx="381.33258"
       sodipodi:cy="426.57269"
       sodipodi:rx="9.5964489"
       sodipodi:ry="9.5964489"
       d="M 390.92903 426.57269 A 9.5964489 9.5964489 0 1 1  371.73613,426.57269 A 9.5964489 9.5964489 0 1 1  390.92903 426.57269 z"
       transform="matrix(0.299279,0,0,0.299279,-72.75369,-46.24406)" />
    <path
       transform="matrix(0.299279,0,0,0.299279,-58.24252,-46.24406)"
       d="M 390.92903 426.57269 A 9.5964489 9.5964489 0 1 1  371.73613,426.57269 A 9.5964489 9.5964489 0 1 1  390.92903 426.57269 z"
       sodipodi:ry="9.5964489"
       sodipodi:rx="9.5964489"
       sodipodi:cy="426.57269"
       sodipodi:cx="381.33258"
       id="path2302"
       style="fill:#270000;fill-opacity:1;stroke:none;stroke-width:5;stroke-miterlimit:4;stroke-dasharray:none;stroke-opacity:1"
       sodipodi:type="arc" />
    <rect
       style="fill:#8b843a;fill-opacity:1;fill-rule:nonzero;stroke:#401000;stroke-width:1.47907937;stroke-miterlimit:4;stroke-dasharray:none;stroke-opacity:1"
       id="rect2304"
       width="25.394682"
       height="7.5579405"
       x="35.451656"
       y="86.994926"
       rx="3.3490448"
       ry="3.709944" />
    <path
       transform="matrix(0.299279,0,0,0.299279,-75.14798,-117.1201)"
       d="M 390.92903 426.57269 A 9.5964489 9.5964489 0 1 1  371.73613,426.57269 A 9.5964489 9.5964489 0 1 1  390.92903 426.57269 z"
       sodipodi:ry="9.5964489"
       sodipodi:rx="9.5964489"
       sodipodi:cy="426.57269"
       sodipodi:cx="381.33258"
       id="path2311"
       style="fill:#270000;fill-opacity:1;stroke:none;stroke-width:5;stroke-miterlimit:4;stroke-dasharray:none;stroke-opacity:1"
       sodipodi:type="arc" />
    <path
       sodipodi:type="arc"
       style="fill:#270000;fill-opacity:1;stroke:none;stroke-width:5;stroke-miterlimit:4;stroke-dasharray:none;stroke-opacity:1"
       id="path2313"
       sodipodi:cx="381.33258"
       sodipodi:cy="426.57269"
       sodipodi:rx="9.5964489"
       sodipodi:ry="9.5964489"
       d="M 390.92903 426.57269 A 9.5964489 9.5964489 0 1 1  371.73613,426.57269 A 9.5964489 9.5964489 0 1 1  390.92903 426.57269 z"
       transform="matrix(0.299279,0,0,0.299279,-56.44678,-117.1201)" />
    <path
       style="fill:#c33c00;fill-opacity:1;stroke:#aa1e00;stroke-width:1.47907937;stroke-miterlimit:4;stroke-dasharray:none;stroke-opacity:1"
       d="M 35.575981,33.610973 C 33.808965,33.610973 32.386801,35.268596 32.386791,37.323907 L 32.386791,62.556881 C 32.386791,64.612192 33.808965,66.26046 35.575981,66.26046 L 44.124143,66.26046 C 44.123887,66.247078 44.114805,66.236487 44.114805,66.223052 L 44.114805,53.97131 C 44.114805,53.6675 44.179204,53.382845 44.301849,53.120233 C 44.424495,52.85762 44.605978,52.61705 44.825582,52.418798 C 45.045195,52.220556 45.301579,52.061883 45.592494,51.951174 C 45.883409,51.840467 46.209891,51.782835 46.546441,51.782835 L 46.63062,51.782835 C 46.96716,51.782835 47.293652,51.840467 47.584567,51.951174 C 47.875483,52.061883 48.131856,52.220556 48.35147,52.418798 C 48.571074,52.61705 48.752567,52.85762 48.875212,53.120233 C 48.997847,53.382845 49.062256,53.6675 49.062256,53.97131 L 49.062256,66.223052 C 49.062256,66.236487 49.053175,66.247078 49.052899,66.26046 L 61.847093,66.26046 C 63.614109,66.26046 65.036293,64.612192 65.036293,62.556881 L 65.036293,55.187131 L 57.591712,55.187131 C 57.417201,55.187131 57.24688,55.148861 57.096033,55.074907 C 56.945187,55.000942 56.807751,54.889364 56.693872,54.756915 C 56.580012,54.624466 56.486249,54.474098 56.422658,54.298646 C 56.359058,54.123194 56.329131,53.931119 56.329131,53.728143 L 56.329131,43.758411 C 56.329141,43.555435 56.359058,43.363361 56.422658,43.187908 C 56.486249,43.012456 56.580012,42.852733 56.693872,42.720285 C 56.807751,42.587836 56.945187,42.476267 57.096033,42.402303 C 57.24688,42.328339 57.417201,42.290069 57.591712,42.290069 L 65.036293,42.290069 L 65.036293,37.323907 C 65.036293,35.268596 63.614109,33.610963 61.847093,33.610973 L 35.575981,33.610973 z "
       id="path2320" />
    <path
       transform="matrix(0.299279,0,0,0.299279,-76.34507,-75.27414)"
       d="M 390.92903 426.57269 A 9.5964489 9.5964489 0 1 1  371.73613,426.57269 A 9.5964489 9.5964489 0 1 1  390.92903 426.57269 z"
       sodipodi:ry="9.5964489"
       sodipodi:rx="9.5964489"
       sodipodi:cy="426.57269"
       sodipodi:cx="381.33258"
       id="path2322"
       style="fill:#270000;fill-opacity:1;stroke:none;stroke-width:5;stroke-miterlimit:4;stroke-dasharray:none;stroke-opacity:1"
       sodipodi:type="arc" />
    <path
       style="fill:#9c470b;fill-opacity:1;stroke:#602d0b;stroke-width:1.47907937;stroke-miterlimit:4;stroke-dasharray:none;stroke-opacity:1"
       d="M 45.303985,12.544847 C 43.862622,12.654632 42.668384,13.645839 42.253384,14.979165 L 35.381828,14.979165 C 35.160962,14.979164 34.942728,15.022354 34.73473,15.071607 C 34.526723,15.120873 34.340181,15.193689 34.149262,15.287306 C 33.767393,15.474542 33.420647,15.753185 33.132395,16.088474 C 32.844132,16.423752 32.615456,16.815263 32.454483,17.259412 C 32.29351,17.703562 32.20797,18.193852 32.20797,18.707677 L 32.20797,28.814719 C 32.20796,30.87003 33.614811,32.543232 35.381828,32.543232 L 61.6663,32.543232 C 63.433326,32.543232 64.840167,30.87003 64.840158,28.814719 L 64.840158,18.707677 C 64.840158,18.193851 64.754627,17.703561 64.593644,17.259412 C 64.432671,16.815264 64.203986,16.423753 63.915733,16.088474 C 63.62747,15.753184 63.280715,15.474543 62.898866,15.287306 C 62.707946,15.193688 62.521405,15.120873 62.313397,15.071607 C 62.105399,15.022354 61.887176,14.979165 61.6663,14.979165 L 54.240089,14.979165 C 53.799688,13.564208 52.471445,12.544847 50.912161,12.544847 C 49.847647,12.544847 48.900051,13.023077 48.262143,13.777413 C 47.624226,13.013873 46.653319,12.544847 45.581312,12.544847 C 45.491355,12.544847 45.392227,12.538125 45.303985,12.544847 z "
       id="path2309" />
    <rect
       ry="3.709944"
       rx="3.3490448"
       y="19.544353"
       x="35.524601"
       height="7.5579405"
       width="25.394682"
       id="rect2315"
       style="fill:#8b843a;fill-opacity:1;stroke:#401000;stroke-width:1.47907937;stroke-miterlimit:4;stroke-dasharray:none;stroke-opacity:1" />
  </g>
</svg>
