<?xml version="1.0" encoding="UTF-8" standalone="no"?>
<!-- Created with Inkscape (http://www.inkscape.org/) -->
<svg
   xmlns:dc="http://purl.org/dc/elements/1.1/"
   xmlns:cc="http://web.resource.org/cc/"
   xmlns:rdf="http://www.w3.org/1999/02/22-rdf-syntax-ns#"
   xmlns:svg="http://www.w3.org/2000/svg"
   xmlns="http://www.w3.org/2000/svg"
   xmlns:xlink="http://www.w3.org/1999/xlink"
   xmlns:sodipodi="http://sodipodi.sourceforge.net/DTD/sodipodi-0.dtd"
   xmlns:inkscape="http://www.inkscape.org/namespaces/inkscape"
   width="744.09448819"
   height="1052.3622047"
   id="svg2"
   sodipodi:version="0.32"
   inkscape:version="0.44.1"
   sodipodi:docbase="C:\xix\swf\estension\art"
   sodipodi:docname="heart.svg">
  <defs
     id="defs4">
    <linearGradient
       id="linearGradient10168">
      <stop
         id="stop10178"
         offset="0"
         style="stop-color:#ff2020;stop-opacity:1;" />
      <stop
         style="stop-color:#200000;stop-opacity:1;"
         offset="1"
         id="stop10172" />
    </linearGradient>
    <linearGradient
       id="linearGradient6610">
      <stop
         id="stop9281"
         offset="0"
         style="stop-color:navy;stop-opacity:1;" />
      <stop
         style="stop-color:#000040;stop-opacity:1;"
         offset="1"
         id="stop6614" />
    </linearGradient>
    <radialGradient
       inkscape:collect="always"
       xlink:href="#linearGradient6610"
       id="radialGradient7509"
       cx="1984.3333"
       cy="1330.9655"
       fx="1984.3333"
       fy="1330.9655"
       r="211.49577"
       gradientTransform="matrix(-1.336672,0.605677,-0.340338,-0.751095,5258.631,1122.321)"
       gradientUnits="userSpaceOnUse"
       spreadMethod="pad" />
    <radialGradient
       inkscape:collect="always"
       xlink:href="#linearGradient10168"
       id="radialGradient10176"
       cx="2213.0469"
       cy="1322.469"
       fx="2213.0469"
       fy="1322.469"
       r="104.58644"
       gradientTransform="matrix(-2.492189,0.87853,-0.718417,-2.037987,8627.418,2070.158)"
       gradientUnits="userSpaceOnUse" />
    <radialGradient
       inkscape:collect="always"
       xlink:href="#linearGradient10168"
       id="radialGradient13792"
       cx="-1299.1549"
       cy="2065.9727"
       fx="-1299.1549"
       fy="2065.9727"
       r="211.49579"
       gradientTransform="matrix(1,0,0,0.877836,0,256.7402)"
       gradientUnits="userSpaceOnUse" />
  </defs>
  <sodipodi:namedview
     id="base"
     pagecolor="#ffffff"
     bordercolor="#666666"
     borderopacity="1.0"
     gridtolerance="10000"
     guidetolerance="10"
     objecttolerance="10"
     inkscape:pageopacity="0.0"
     inkscape:pageshadow="2"
     inkscape:zoom="0.70328191"
     inkscape:cx="-1140.2745"
     inkscape:cy="-1072.8389"
     inkscape:document-units="px"
     inkscape:current-layer="layer1"
     inkscape:window-width="1024"
     inkscape:window-height="721"
     inkscape:window-x="-4"
     inkscape:window-y="-4" />
  <metadata
     id="metadata7">
    <rdf:RDF>
      <cc:Work
         rdf:about="">
        <dc:format>image/svg+xml</dc:format>
        <dc:type
           rdf:resource="http://purl.org/dc/dcmitype/StillImage" />
      </cc:Work>
    </rdf:RDF>
  </metadata>
  <g
     inkscape:label="Layer 1"
     inkscape:groupmode="layer"
     id="layer1">
    <image
       y="230.6479"
       x="115.42855"
       id="image2005"
       height="512"
       width="512"
       sodipodi:absref="C:\xix\www\xixs\lj\apple23.png"
       xlink:href="C:\xix\www\xixs\lj\apple23.png" />
    <path
       style="fill:black"
       d="M 874.92179,767.72395 C 853.6655,766.91836 845.5466,766.07185 857.62736,765.92077 C 869.84185,765.76801 893.45334,763.76158 906.19885,761.79331 C 938.33657,756.83034 966.20157,746.79777 990.31477,731.50806 C 1009.5893,719.28645 1030.1718,698.88143 1042.1597,680.11022 C 1061.9624,649.10234 1071.8891,613.60457 1071.877,573.84182 C 1071.8665,539.3813 1065.234,510.97031 1051.6642,487.25759 C 1045.1103,475.80505 1040.2897,469.74298 1031.9972,462.52606 C 1017.1008,449.56169 1001.7836,446.04871 982.56477,451.1888 C 977.75227,452.4759 973.81477,453.42321 973.81477,453.29393 C 973.81477,452.89864 993.78617,440.43141 1002.9567,435.10192 C 1014.6227,428.32223 1029.5105,422.352 1042.5358,419.23013 C 1052.0845,416.94151 1054.7985,416.69959 1066.3148,417.11052 C 1077.6451,417.51481 1080.5245,417.99012 1088.7337,420.8112 C 1098.4784,424.15995 1111.2037,431.72355 1117.9406,438.17108 C 1141.7737,460.98033 1155.1116,498.42414 1155.0475,542.34182 C 1154.9301,622.79845 1111.8953,695.91025 1041.4529,735.32776 C 1009.7024,753.09442 971.78937,763.76749 927.69887,767.35124 C 908.04842,768.94846 907.36008,768.95332 874.92179,767.72395 z "
       id="path2020" />
    <path
       style="fill:black"
       d="M 842.09265,756.57878 C 842.35768,755.89845 852.18708,732.70243 863.93578,705.03207 L 885.29703,654.72232 L 886.98173,658.53207 C 887.90831,660.62743 888.6998,663.26156 888.74059,664.38568 C 888.78138,665.5098 885.7404,673.6098 881.98287,682.38568 C 878.22533,691.16156 869.8748,710.77993 863.42613,725.98207 L 851.70128,753.62233 L 846.65603,755.71904 C 843.41643,757.06536 841.78323,757.37305 842.09265,756.57878 z "
       id="path2018" />
    <path
       style="fill:black"
       d="M 899.76416,652.32512 C 895.80284,650.60905 892.81475,646.36439 892.81475,642.4533 C 892.81475,641.03434 894.05825,638.48166 895.57807,636.78068 L 898.3414,633.68798 L 897.99165,638.08547 C 897.70224,641.72433 898.119,643.04995 900.40745,645.76962 C 903.05094,648.91123 903.42824,649.03783 908.95619,648.63797 C 916.75169,648.07409 928.23727,642.23573 934.29817,635.75603 C 936.78227,633.10034 938.81477,630.08666 938.81477,629.05898 C 938.81477,626.30875 935.01737,623.32057 929.06477,621.3867 C 926.17727,620.44861 923.81477,619.5364 923.81477,619.35957 C 923.81477,619.18274 929.21477,615.57475 935.81477,611.34182 C 942.41477,607.10889 947.81477,603.31808 947.81477,602.91779 C 947.81477,602.5175 940.61777,601.35866 931.82137,600.34259 C 923.02507,599.32651 915.9681,598.35514 916.13926,598.18398 C 916.31042,598.01282 921.14497,596.49106 926.88257,594.80229 C 949.22127,588.22737 963.81477,578.54482 963.81477,570.29842 C 963.81477,565.38348 962.42717,563.19488 957.82117,560.84509 C 949.19717,556.44547 935.56077,559.24961 927.78977,567.02063 L 924.81477,569.99567 L 924.81477,566.28682 C 924.81477,556.66729 941.49777,550.77085 955.52977,555.43091 C 969.90147,560.20377 974.04267,570.09837 966.05757,580.58472 C 962.70037,584.99359 952.84687,591.41426 946.24387,593.49569 C 943.25787,594.43695 940.81477,595.52113 940.81477,595.90499 C 940.81477,596.28885 945.56177,596.92647 951.36367,597.32193 C 969.38687,598.5504 969.36217,598.09964 951.98697,608.70384 C 938.10017,617.17905 934.75867,619.84182 938.01007,619.84182 C 938.66747,619.84182 940.46747,621.05101 942.01007,622.52891 C 949.43987,629.64715 941.38987,641.53024 923.45117,649.92475 C 915.20594,653.78319 905.41926,654.77493 899.76416,652.32512 z "
       id="path2016" />
    <path
       style="fill:black"
       d="M 949.01307,504.6244 C 958.89297,481.37172 967.09147,462.23176 967.23207,462.09114 C 967.37267,461.95053 968.29577,464.21272 969.28337,467.11824 L 971.07907,472.40099 L 956.07627,507.75736 C 942.45157,539.8657 940.80297,543.22743 938.12947,544.35153 C 930.46917,547.57244 929.93237,549.53179 949.01307,504.6244 z "
       id="path2014" />
    <path
       style="fill:black"
       d="M 973.06477,434.17954 C 972.13017,433.80242 971.81477,429.16302 971.81477,415.79287 C 971.81477,405.01636 971.19307,393.45339 970.25027,386.69367 C 967.32417,365.71464 960.23537,342.74612 952.16777,328.10439 C 949.32607,322.94703 948.92237,321.5092 949.83667,319.80088 C 952.27357,315.24751 960.96837,312.42858 966.28417,314.46846 C 968.37177,315.26954 973.80827,326.09656 977.16197,336.13201 C 982.79167,352.9782 983.32557,358.28961 983.19167,396.12288 C 983.07887,427.97849 982.91867,431.06954 981.28667,432.87288 C 979.61177,434.72354 975.88197,435.31631 973.06477,434.17954 z "
       id="path2012" />
    <path
       style="fill:black"
       d="M 1129.3148,411.75892 C 1110.2699,410.65869 1093.1355,406.12488 1081.4643,399.09757 C 1078.2466,397.16014 1070.6456,391.11741 1064.5733,385.66927 C 1039.6707,363.32645 1026.3636,355.40927 993.52387,343.39754 C 987.87027,341.32962 988.27717,340.1614 996.01727,336.23919 C 1004.3242,332.02979 1012.2529,330.46625 1025.3148,330.46177 C 1043.2554,330.45562 1062.5716,334.38268 1088.7787,343.36424 C 1106.4749,349.42898 1120.0211,356.5452 1138.2505,369.35323 C 1159.6889,384.41595 1174.6431,391.685 1195.6939,397.27572 C 1200.8524,398.64573 1205.2709,399.96461 1205.5129,400.20657 C 1205.7548,400.44852 1203.3342,401.63211 1200.1338,402.83676 C 1181.2674,409.93806 1155.025,413.24421 1129.3148,411.75892 z "
       id="path2008" />
    <path
       style="fill:black"
       d="M 1366.3493,753.48338 C 1345.093,752.67779 1336.9741,751.83128 1349.0548,751.6802 C 1361.2693,751.52744 1384.8808,749.52101 1397.6263,747.55274 C 1429.764,742.58977 1457.629,732.5572 1481.7422,717.26749 C 1501.0167,705.04588 1521.5992,684.64086 1533.5871,665.86965 C 1553.3898,634.86177 1563.3165,599.364 1563.3044,559.60125 C 1563.2939,525.14073 1556.6614,496.72974 1543.0916,473.01702 C 1536.5377,461.56448 1531.7171,455.50241 1523.4246,448.28549 C 1508.5282,435.32112 1493.211,431.80814 1473.9922,436.94823 C 1469.1797,438.23533 1465.2422,439.18264 1465.2422,439.05336 C 1465.2422,438.65807 1485.2136,426.19084 1494.3841,420.86135 C 1506.0501,414.08166 1520.9379,408.11143 1533.9632,404.98956 C 1543.5119,402.70094 1546.2259,402.45902 1557.7422,402.86995 C 1569.0725,403.27424 1571.9519,403.74955 1580.1611,406.57063 C 1589.9058,409.91938 1602.6311,417.48298 1609.368,423.93051 C 1633.2011,446.73976 1646.539,484.18357 1646.4749,528.10125 C 1646.3575,608.55788 1603.3227,681.66968 1532.8803,721.08719 C 1501.1298,738.85385 1463.2168,749.52692 1419.1263,753.11067 C 1399.4759,754.70789 1398.7875,754.71275 1366.3493,753.48338 z "
       id="path2022" />
    <path
       style="fill:black"
       d="M 1333.5201,742.33821 C 1333.7851,741.65788 1343.6145,718.46186 1355.3632,690.7915 L 1376.7245,640.48175 L 1378.4092,644.2915 C 1379.3358,646.38686 1380.1273,649.02099 1380.1681,650.14511 C 1380.2088,651.26923 1377.1679,659.36923 1373.4103,668.14511 C 1369.6528,676.92099 1361.3023,696.53936 1354.8536,711.7415 L 1343.1287,739.38176 L 1338.0835,741.47847 C 1334.8439,742.82479 1333.2107,743.13248 1333.5201,742.33821 z "
       id="path2024" />
    <path
       style="fill:black"
       d="M 1391.1916,638.08455 C 1387.2303,636.36848 1384.2422,632.12382 1384.2422,628.21273 C 1384.2422,626.79377 1385.4857,624.24109 1387.0055,622.54011 L 1389.7689,619.44741 L 1389.4191,623.8449 C 1389.1297,627.48376 1389.5465,628.80938 1391.8349,631.52905 C 1394.4784,634.67066 1394.8557,634.79726 1400.3837,634.3974 C 1408.1792,633.83352 1419.6647,627.99516 1425.7256,621.51546 C 1428.2097,618.85977 1430.2422,615.84609 1430.2422,614.81841 C 1430.2422,612.06818 1426.4448,609.08 1420.4922,607.14613 C 1417.6047,606.20804 1415.2422,605.29583 1415.2422,605.119 C 1415.2422,604.94217 1420.6422,601.33418 1427.2422,597.10125 C 1433.8422,592.86832 1439.2422,589.07751 1439.2422,588.67722 C 1439.2422,588.27693 1432.0452,587.11809 1423.2488,586.10202 C 1414.4525,585.08594 1407.3956,584.11457 1407.5667,583.94341 C 1407.7379,583.77225 1412.5724,582.25049 1418.31,580.56172 C 1440.6487,573.9868 1455.2422,564.30425 1455.2422,556.05785 C 1455.2422,551.14291 1453.8546,548.95431 1449.2486,546.60452 C 1440.6246,542.2049 1426.9882,545.00904 1419.2172,552.78006 L 1416.2422,555.7551 L 1416.2422,552.04625 C 1416.2422,542.42672 1432.9252,536.53028 1446.9572,541.19034 C 1461.3289,545.9632 1465.4701,555.8578 1457.485,566.34415 C 1454.1278,570.75302 1444.2743,577.17369 1437.6713,579.25512 C 1434.6853,580.19638 1432.2422,581.28056 1432.2422,581.66442 C 1432.2422,582.04828 1436.9892,582.6859 1442.7911,583.08136 C 1460.8143,584.30983 1460.7896,583.85907 1443.4144,594.46327 C 1429.5276,602.93848 1426.1861,605.60125 1429.4375,605.60125 C 1430.0949,605.60125 1431.8949,606.81044 1433.4375,608.28834 C 1440.8673,615.40658 1432.8173,627.28967 1414.8786,635.68418 C 1406.6334,639.54262 1396.8467,640.53436 1391.1916,638.08455 z "
       id="path2026" />
    <path
       style="fill:black"
       d="M 1440.4405,490.38383 C 1450.3204,467.13115 1458.5189,447.99119 1458.6595,447.85057 C 1458.8001,447.70996 1459.7232,449.97215 1460.7108,452.87767 L 1462.5065,458.16042 L 1447.5037,493.51679 C 1433.879,525.62513 1432.2304,528.98686 1429.5569,530.11096 C 1421.8966,533.33187 1421.3598,535.29122 1440.4405,490.38383 z "
       id="path2028" />
    <path
       style="fill:black"
       d="M 1464.4922,419.93897 C 1463.5576,419.56185 1463.2422,414.92245 1463.2422,401.5523 C 1463.2422,390.77579 1462.6205,379.21282 1461.6777,372.4531 C 1458.7516,351.47407 1451.6628,328.50555 1443.5952,313.86382 C 1440.7535,308.70646 1440.3498,307.26863 1441.2641,305.56031 C 1443.701,301.00694 1452.3958,298.18801 1457.7116,300.22789 C 1459.7992,301.02897 1465.2357,311.85599 1468.5894,321.89144 C 1474.2191,338.73763 1474.753,344.04904 1474.6191,381.88231 C 1474.5063,413.73792 1474.3461,416.82897 1472.7141,418.63231 C 1471.0392,420.48297 1467.3094,421.07574 1464.4922,419.93897 z "
       id="path2030" />
    <path
       style="fill:black"
       d="M 1620.7422,397.51835 C 1601.6973,396.41812 1584.5629,391.88431 1572.8917,384.857 C 1569.674,382.91957 1562.073,376.87684 1556.0007,371.4287 C 1531.0981,349.08588 1517.791,341.1687 1484.9513,329.15697 C 1479.2977,327.08905 1479.7046,325.92083 1487.4447,321.99862 C 1495.7516,317.78922 1503.6803,316.22568 1516.7422,316.2212 C 1534.6828,316.21505 1553.999,320.14211 1580.2061,329.12367 C 1597.9023,335.18841 1611.4485,342.30463 1629.6779,355.11266 C 1651.1163,370.17538 1666.0705,377.44443 1687.1213,383.03515 C 1692.2798,384.40516 1696.6983,385.72404 1696.9403,385.966 C 1697.1822,386.20795 1694.7616,387.39154 1691.5612,388.59619 C 1672.6948,395.69749 1646.4524,399.00364 1620.7422,397.51835 z "
       id="path2032" />
    <path
       style="fill:#000040;fill-opacity:1"
       d="M 1293.6542,1213.5718 C 1284.6055,1213.6355 1273.9673,1215.1144 1267.109,1217.4286 C 1237.2476,1227.5043 1210.9383,1253.3435 1193.9441,1289.3112 C 1162.8107,1355.2034 1172.3829,1430.5602 1219.1651,1488.218 C 1240.2512,1514.206 1269.5183,1536.6043 1306.9871,1555.4332 C 1323.6862,1563.825 1324.2685,1564.0846 1353.336,1574.7733 C 1363.8752,1578.6489 1377.1845,1582.2398 1385.1782,1583.9124 C 1383.5785,1584.8328 1384.9088,1584.9432 1388.0675,1584.4713 C 1391.8119,1585.1313 1393.3393,1585.0421 1391.1674,1583.9403 C 1398.6439,1582.491 1411.0531,1579.2542 1421.4145,1575.4441 C 1433.1156,1571.1414 1440.199,1568.5209 1445.5821,1566.3889 C 1453.5716,1563.2244 1457.7863,1561.1176 1467.7634,1556.1039 C 1505.2321,1537.275 1534.5292,1514.8768 1555.6154,1488.8888 C 1602.3977,1431.231 1611.9396,1355.8741 1580.8064,1289.9819 C 1563.8121,1254.0143 1537.5028,1228.1751 1507.6414,1218.0994 C 1499.2005,1215.2512 1485.0559,1213.6656 1475.1672,1214.4383 C 1466.8364,1215.0889 1464.1222,1215.7428 1453.9791,1219.4968 C 1443.6694,1223.3125 1441.3718,1224.466 1433.8444,1229.7817 C 1423.5763,1237.0328 1412.752,1247.3043 1405.1022,1257.059 C 1400.1511,1263.3724 1390.7417,1276.1288 1387.6159,1280.6752 C 1385.0006,1276.7757 1374.8329,1262.9995 1369.6483,1256.3882 C 1361.9984,1246.6335 1351.1741,1236.362 1340.906,1229.1109 C 1333.3786,1223.7953 1331.081,1222.6137 1320.7713,1218.7981 C 1310.6282,1215.0441 1307.914,1214.418 1299.5833,1213.7675 C 1297.7291,1213.6226 1295.7424,1213.5571 1293.6542,1213.5718 z M 1389.7228,1280.256 C 1388.788,1281.1936 1388.2739,1281.7738 1388.2781,1281.7652 C 1388.2893,1281.7414 1388.2177,1281.5991 1388.0975,1281.4019 C 1388.53,1281.1001 1389.1525,1280.6661 1389.7228,1280.256 z "
       id="path2046" />
    <path
       style="fill:navy;fill-opacity:1"
       d="M 1378.4106,1267.0756 C 1377.4404,1267.104 1375.3613,1263.4204 1370.1704,1252.4777 C 1365.9865,1243.6575 1360.9493,1234.418 1357.4939,1229.2254 C 1346.77,1213.11 1331.6047,1196.8671 1318.8096,1187.7921 C 1314.3028,1184.5956 1313.3887,1183.5643 1313.5313,1181.8366 C 1313.9113,1177.2312 1320.4802,1171.7894 1325.9573,1171.5424 C 1328.1083,1171.4454 1337.1034,1178.3469 1343.9555,1185.3512 C 1355.4577,1197.1093 1357.9905,1201.2641 1372.5609,1232.277 C 1384.8292,1258.39 1385.8881,1260.9776 1385.1499,1263.042 C 1384.3921,1265.1604 1381.335,1266.9903 1378.4106,1267.0756 z "
       id="path2054" />
    <path
       style="fill:navy;fill-opacity:1"
       d="M 1507.4202,1192.393 C 1490.2074,1198.3588 1473.3454,1200.8255 1460.3304,1199.2818 C 1456.7422,1198.856 1447.6968,1196.6507 1440.2297,1194.381 C 1409.6069,1185.0726 1394.8046,1183.3902 1361.1972,1185.3988 C 1355.4114,1185.7447 1355.3164,1184.6418 1360.6156,1178.6412 C 1366.3028,1172.201 1372.6839,1168.0628 1384.1945,1163.35 C 1400.0044,1156.8769 1418.5539,1153.127 1445.1391,1151.0296 C 1463.0906,1149.6133 1477.7927,1150.5538 1498.8321,1154.4644 C 1523.5753,1159.0634 1539.5776,1159.6213 1560.3017,1156.6077 C 1565.3802,1155.8691 1569.7866,1155.3556 1570.0938,1155.4664 C 1570.4009,1155.5773 1568.727,1157.4187 1566.374,1159.5584 C 1552.5028,1172.1723 1530.657,1184.3394 1507.4202,1192.393 z "
       id="path2056" />
    <path
       style="fill:navy;fill-opacity:1"
       d="M 1411.0461,1576.8155 C 1391.7525,1583.2122 1384.1903,1585.2079 1394.9376,1581.0669 C 1405.8039,1576.88 1426.1969,1567.3658 1436.8881,1561.4951 C 1463.8461,1546.692 1485.1691,1529.1003 1501.256,1508.3905 C 1514.1146,1491.8365 1525.2137,1468.053 1529.213,1448.4831 C 1535.8195,1416.1557 1531.9887,1383.3832 1517.745,1350.3733 C 1505.4006,1321.765 1489.3009,1300.3806 1468.6802,1285.2029 C 1458.7209,1277.8727 1452.2409,1274.4418 1442.2432,1271.2062 C 1424.2837,1265.3936 1409.3311,1267.5682 1393.9873,1278.2241 C 1390.1453,1280.8924 1386.9637,1282.9877 1386.9174,1282.8804 C 1386.7759,1282.5522 1400.1699,1265.5626 1406.4616,1258.0895 C 1414.4655,1248.5827 1425.6397,1238.6772 1436.1681,1231.7556 C 1443.8865,1226.6816 1446.2265,1225.5785 1456.6704,1222.0918 C 1466.9455,1218.6613 1469.6901,1218.0988 1478.0399,1217.7125 C 1487.9513,1217.2539 1502.0364,1219.3039 1510.3678,1222.4178 C 1539.8415,1233.4337 1565.1699,1260.089 1580.8327,1296.5742 C 1609.5269,1363.4144 1597.2195,1438.4219 1548.3459,1494.564 C 1526.3173,1519.8688 1496.2395,1541.3323 1458.1008,1558.9633 C 1441.1031,1566.8211 1440.4892,1567.0539 1411.0461,1576.8155 z "
       id="path3851" />
    <path
       style="fill:url(#radialGradient7509);fill-opacity:1.0;stroke:none;stroke-opacity:1;stroke-width:11.1;stroke-miterlimit:4;stroke-dasharray:none;opacity:1;fill-rule:nonzero"
       d="M 1944.6486,1194.1147 C 1935.5999,1194.1784 1924.9617,1195.6573 1918.1034,1197.9715 C 1888.242,1208.0472 1861.9327,1233.8864 1844.9385,1269.8541 C 1813.8051,1335.7463 1823.3773,1411.1031 1870.1595,1468.7609 C 1891.2456,1494.7489 1920.5127,1517.1472 1957.9815,1535.9761 C 1974.6806,1544.3679 1975.2629,1544.6275 2004.3304,1555.3162 C 2014.8696,1559.1918 2028.1789,1562.7827 2036.1726,1564.4553 C 2034.5729,1565.3757 2035.9032,1565.4861 2039.0619,1565.0142 C 2042.8063,1565.6742 2044.3337,1565.585 2042.1618,1564.4832 C 2049.6383,1563.0339 2062.0475,1559.7971 2072.4089,1555.987 C 2084.11,1551.6843 2091.1934,1549.0638 2096.5765,1546.9318 C 2104.566,1543.7673 2108.7807,1541.6605 2118.7578,1536.6468 C 2156.2265,1517.8179 2185.5236,1495.4197 2206.6098,1469.4317 C 2253.3921,1411.7739 2262.934,1336.417 2231.8008,1270.5248 C 2214.8065,1234.5572 2188.4972,1208.718 2158.6358,1198.6423 C 2150.1949,1195.7941 2136.0503,1194.2085 2126.1616,1194.9812 C 2117.8308,1195.6318 2115.1166,1196.2857 2104.9735,1200.0397 C 2094.6638,1203.8554 2092.3662,1205.0089 2084.8388,1210.3246 C 2074.5707,1217.5757 2063.7464,1227.8472 2056.0966,1237.6019 C 2051.1455,1243.9153 2041.7361,1256.6717 2038.6103,1261.2181 C 2035.995,1257.3186 2025.8273,1243.5424 2020.6427,1236.9311 C 2012.9928,1227.1764 2002.1685,1216.9049 1991.9004,1209.6538 C 1984.373,1204.3382 1982.0754,1203.1566 1971.7657,1199.341 C 1961.6226,1195.587 1958.9084,1194.9609 1950.5777,1194.3104 C 1948.7235,1194.1655 1946.7368,1194.1 1944.6486,1194.1147 z M 2040.7172,1260.7989 C 2039.7824,1261.7365 2039.2683,1262.3167 2039.2725,1262.3081 C 2039.2837,1262.2843 2039.2121,1262.142 2039.0919,1261.9448 C 2039.5244,1261.643 2040.1469,1261.209 2040.7172,1260.7989 z "
       id="path4746" />
    <path
       style="fill:navy;fill-opacity:1"
       d="M 2029.405,1247.6185 C 2028.4348,1247.6469 2026.3557,1243.9633 2021.1648,1233.0206 C 2016.9809,1224.2004 2011.9437,1214.9609 2008.4883,1209.7683 C 1997.7644,1193.6529 1982.5991,1177.41 1969.804,1168.335 C 1965.2972,1165.1385 1964.3831,1164.1072 1964.5257,1162.3795 C 1964.9057,1157.7741 1971.4746,1152.3323 1976.9517,1152.0853 C 1979.1027,1151.9883 1988.0978,1158.8898 1994.9499,1165.8941 C 2006.4521,1177.6522 2008.9849,1181.807 2023.5553,1212.8199 C 2035.8236,1238.9329 2036.8825,1241.5205 2036.1443,1243.5849 C 2035.3865,1245.7033 2032.3294,1247.5332 2029.405,1247.6185 z "
       id="path4748" />
    <path
       style="fill:navy;fill-opacity:1"
       d="M 2158.4146,1172.9359 C 2141.2018,1178.9017 2124.3398,1181.3684 2111.3248,1179.8247 C 2107.7366,1179.3989 2098.6912,1177.1936 2091.2241,1174.9239 C 2060.6013,1165.6155 2045.799,1163.9331 2012.1916,1165.9417 C 2006.4058,1166.2876 2006.3108,1165.1847 2011.61,1159.1841 C 2017.2972,1152.7439 2023.6783,1148.6057 2035.1889,1143.8929 C 2050.9988,1137.4198 2069.5483,1133.6699 2096.1335,1131.5725 C 2114.085,1130.1562 2128.7871,1131.0967 2149.8265,1135.0073 C 2174.5697,1139.6063 2190.572,1140.1642 2211.2961,1137.1506 C 2216.3746,1136.412 2220.781,1135.8985 2221.0882,1136.0093 C 2221.3953,1136.1202 2219.7214,1137.9616 2217.3684,1140.1013 C 2203.4972,1152.7152 2181.6514,1164.8823 2158.4146,1172.9359 z "
       id="path4750" />
    <path
       style="fill:url(#radialGradient10176);fill-opacity:1.0"
       d="M 2062.0405,1557.3584 C 2042.7469,1563.7551 2035.1847,1565.7508 2045.932,1561.6098 C 2056.7983,1557.4229 2077.1913,1547.9087 2087.8825,1542.038 C 2114.8405,1527.2349 2136.1635,1509.6432 2152.2504,1488.9334 C 2165.109,1472.3794 2176.2081,1448.5959 2180.2074,1429.026 C 2186.8139,1396.6986 2182.9831,1363.9261 2168.7394,1330.9162 C 2156.395,1302.3079 2140.2953,1280.9235 2119.6746,1265.7458 C 2109.7153,1258.4156 2103.2353,1254.9847 2093.2376,1251.7491 C 2075.2781,1245.9365 2060.3255,1248.1111 2044.9817,1258.767 C 2041.1397,1261.4353 2037.9581,1263.5306 2037.9118,1263.4233 C 2037.7703,1263.0951 2051.1643,1246.1055 2057.456,1238.6324 C 2065.4599,1229.1256 2076.6341,1219.2201 2087.1625,1212.2985 C 2094.8809,1207.2245 2097.2209,1206.1214 2107.6648,1202.6347 C 2117.9399,1199.2042 2120.6845,1198.6417 2129.0343,1198.2554 C 2138.9457,1197.7968 2153.0308,1199.8468 2161.3622,1202.9607 C 2190.8359,1213.9766 2216.1643,1240.6319 2231.8271,1277.1171 C 2260.5213,1343.9573 2248.2139,1418.9648 2199.3403,1475.1069 C 2177.3117,1500.4117 2147.2339,1521.8752 2109.0952,1539.5062 C 2092.0975,1547.364 2091.4836,1547.5968 2062.0405,1557.3584 z "
       id="path4752" />
    <path
       style="fill:url(#radialGradient13792);fill-opacity:1.0"
       d="M -1307.5667,1915.9513 C -1316.6154,1916.015 -1327.2536,1917.4939 -1334.1119,1919.8081 C -1363.9733,1929.8838 -1390.2826,1955.723 -1407.2768,1991.6907 C -1438.4102,2057.5829 -1428.838,2132.9397 -1382.0558,2190.5975 C -1360.9697,2216.5855 -1331.7026,2244.6714 -1294.2338,2263.5003 C -1246.423,2292.5599 -1201.7085,2292.651 -1155.6388,2268.7684 C -1113.1988,2251.8839 -1076.0383,2225.1055 -1045.6055,2191.2683 C -998.82316,2133.6105 -989.28126,2058.2536 -1020.4145,1992.3614 C -1037.4088,1956.3938 -1063.7181,1930.5546 -1093.5795,1920.4789 C -1102.0204,1917.6307 -1116.165,1916.0451 -1126.0537,1916.8178 C -1134.3845,1917.4684 -1137.0987,1918.1223 -1147.2418,1921.8763 C -1157.5515,1925.692 -1159.8491,1926.8455 -1167.3765,1932.1612 C -1177.6446,1939.4123 -1188.4689,1949.6838 -1196.1187,1959.4385 C -1201.0698,1965.7519 -1210.4792,1978.5083 -1213.605,1983.0547 C -1216.2203,1979.1552 -1226.388,1965.379 -1231.5726,1958.7677 C -1239.2225,1949.013 -1250.0468,1938.7415 -1260.3149,1931.4904 C -1267.8423,1926.1748 -1270.1399,1924.9932 -1280.4496,1921.1776 C -1290.5927,1917.4236 -1293.3069,1916.7975 -1301.6376,1916.147 C -1303.4918,1916.0021 -1305.4785,1915.9366 -1307.5667,1915.9513 z M -1211.4981,1982.6355 C -1212.4329,1983.5731 -1212.947,1984.1533 -1212.9428,1984.1447 C -1212.9316,1984.1209 -1213.0032,1983.9786 -1213.1234,1983.7814 C -1212.6909,1983.4796 -1212.0684,1983.0456 -1211.4981,1982.6355 z "
       id="path10180"
       inkscape:export-filename="C:\xix\swf\estension\art\heart.png"
       inkscape:export-xdpi="20.714413"
       inkscape:export-ydpi="20.714413"
       sodipodi:nodetypes="cscscccsssssscssssccscc" />
  </g>
</svg>
